  0
SECTION
  2
HEADER
  9
$ACADVER
  1
AC1009
  9
$INSBASE
 10
0.0
 20
0.0
 30
0.0
  9
$EXTMIN
 10
0.0
 20
0.0
 30
0.0
  9
$EXTMAX
 10
0.0
 20
0.0
 30
0.0
  0
ENDSEC
  0
SECTION
  2
TABLES
  0
TABLE
  2
VPORT
 70
1
  0
VPORT
  2
*ACTIVE
 70
0
 10
0.0
 20
0.0
 11
1.0
 21
1.0
 12
-5.0
 22
1.0
 13
0.0
 23
0.0
 14
0.1
 24
0.1
 15
0.1
 25
0.1
 16
0.0
 26
0.0
 36
1.0
 17
0.0
 27
0.0
 37
0.0
 40
10.0
 41
1.0
 42
50.0
 43
0.0
 44
0.0
 50
0.0
 51
0.0
 71
0
 72
100
 73
1
 74
1
 75
0
 76
0
 77
0
 78
0
  0
ENDTAB
  0
TABLE
  2
LTYPE
 70
8
  0
LTYPE
  2
CONTINUOUS
 70
0
  3
Solid line
 72
65
 73
0
 40
0.0
  0
LTYPE
  2
DOT
 70
0
  3
. . . . . . .
 72
65
 73
2
 40
0.25
 49
0.0
 49
-0.25
  0
LTYPE
  2
DASHED
 70
0
  3
__ __ __ __ __
 72
65
 73
2
 40
0.8
 49
0.5
 49
-0.3
  0
LTYPE
  2
DASHDOT
 70
0
  3
__ . __ . __ .
 72
65
 73
4
 40
1.0
 49
0.5
 49
-0.25
 49
0.0
 49
-0.25
  0
LTYPE
  2
DIVIDE
 70
0
  3
____ . . ____ . . 
 72
65
 73
6
 40
1.25
 49
0.5
 49
-0.25
 49
0.0
 49
-0.25
 49
0.0
 49
-0.25
  0
LTYPE
  2
BORDER
 70
0
  3
__ __ . __ __ . 
 72
65
 73
6
 40
1.75
 49
0.5
 49
-0.25
 49
0.5
 49
-0.25
 49
0.0
 49
-0.25
  0
LTYPE
  2
HIDDEN
 70
0
  3
__ __ __ __ __
 72
65
 73
2
 40
0.4
 49
0.25
 49
-0.25
  0
LTYPE
  2
CENTER
 70
0
  3
____ _ ____ _ __
 72
65
 73
4
 40
2.0
 49
1.25
 49
-0.25
 49
0.25
 49
-0.25
  0
ENDTAB
  0
TABLE
  2
LAYER
 70
1
  0
LAYER
  2
PYDXF
 70
64
 62
7
  6
continuous
  0
ENDTAB
  0
TABLE
  2
STYLE
 70
1
  0
STYLE
  2
STANDARD
 70
0
 40
0
 41
1.0
 50
0.0
 71
0
 42
1
 3
ARIAL.TTF
 4

  0
ENDTAB
  0
TABLE
  2
VIEW
 70
1
  0
VIEW
  2
BF_TOPVIEW
 70
0
 40
120.0
 10
0.0
 20
0.0
 41
200.0
 11
0.0
 21
0.0
 31
1.0
 12
0.0
 22
0.0
 32
0.0
 42
50.0
 43
0.0
 44
0.0
 50
0.0
 71
0
  0
ENDTAB
  0
ENDSEC
  0
SECTION
  2
BLOCKS
  0
ENDSEC
  0
SECTION
  2
ENTITIES
  0
LINE
  8
0
 10
181.99998474121094
 20
339.9999694824219
 30
-119.0
 11
181.9999237060547
 21
-74.28720092773438
 31
-118.9999771118164
  0
LINE
  8
0
 10
152.65257263183594
 20
-74.28719329833984
 30
-118.99996948242188
 11
143.4352569580078
 21
-72.93367767333984
 31
-118.99996948242188
  0
LINE
  8
0
 10
143.4352569580078
 20
-72.93367767333984
 30
-118.99996948242188
 11
134.5952606201172
 21
-69.09526824951172
 31
-118.99996948242188
  0
LINE
  8
0
 10
134.5952606201172
 20
-69.09526824951172
 30
-118.99996948242188
 11
126.71456146240234
 21
-63.060752868652344
 31
-118.99996948242188
  0
LINE
  8
0
 10
126.71456146240234
 20
-63.060752868652344
 30
-118.99996948242188
 11
120.70378875732422
 21
-55.52733612060547
 31
-118.99996948242188
  0
LINE
  8
0
 10
116.97294616699219
 20
-46.93400955200195
 30
-118.99996185302734
 11
120.70378875732422
 21
-55.52733612060547
 31
-118.99996948242188
  0
LINE
  8
0
 10
181.9999237060547
 20
-74.28720092773438
 30
-118.9999771118164
 11
152.65257263183594
 21
-74.28719329833984
 31
-118.99996948242188
  0
LINE
  8
0
 10
-257.5933837890625
 20
189.3773956298828
 30
-118.99989318847656
 11
-258.8412780761719
 21
189.9163818359375
 31
-118.99989318847656
  0
LINE
  8
0
 10
-258.8412780761719
 20
189.9163818359375
 30
-118.99989318847656
 11
-259.7899169921875
 21
190.67098999023438
 31
-118.99989318847656
  0
LINE
  8
0
 10
-259.7899169921875
 20
190.67098999023438
 30
-118.99989318847656
 11
-260.59869384765625
 21
191.72499084472656
 31
-118.99989318847656
  0
LINE
  8
0
 10
-260.59869384765625
 20
191.72499084472656
 30
-118.99989318847656
 11
-261.08209228515625
 21
192.83665466308594
 31
-118.99989318847656
  0
LINE
  8
0
 10
-261.2797546386719
 20
194.1815185546875
 30
-118.99989318847656
 11
-261.08209228515625
 21
192.83665466308594
 31
-118.99989318847656
  0
LINE
  8
0
 10
-255.0738067626953
 20
340.0000305175781
 30
-118.99989318847656
 11
-257.2947082519531
 21
339.6482238769531
 31
-118.99989318847656
  0
LINE
  8
0
 10
-257.2947082519531
 20
339.6482238769531
 30
-118.99989318847656
 11
-258.8723449707031
 21
338.8443603515625
 31
-118.99989318847656
  0
LINE
  8
0
 10
-258.8723449707031
 20
338.8443603515625
 30
-118.99989318847656
 11
-260.1241149902344
 21
337.59259033203125
 31
-118.99989318847656
  0
LINE
  8
0
 10
-260.1241149902344
 20
337.59259033203125
 30
-118.99989318847656
 11
-260.927978515625
 21
336.0149841308594
 31
-118.99989318847656
  0
LINE
  8
0
 10
-261.2797546386719
 20
333.7940979003906
 30
-118.99989318847656
 11
-260.927978515625
 21
336.0149841308594
 31
-118.99989318847656
  0
LINE
  8
0
 10
181.99998474121094
 20
339.9999694824219
 30
-119.0
 11
-255.0738067626953
 21
340.0000305175781
 31
-118.99989318847656
  0
LINE
  8
0
 10
-261.2797546386719
 20
194.1815185546875
 30
-118.99989318847656
 11
-261.2797546386719
 21
333.7940979003906
 31
-118.99989318847656
  0
LINE
  8
0
 10
84.2592544555664
 20
66.35612487792969
 30
-118.99996185302734
 11
79.82193756103516
 21
77.20591735839844
 31
-118.99996185302734
  0
LINE
  8
0
 10
79.82193756103516
 20
77.20591735839844
 30
-118.99996185302734
 11
72.44437408447266
 21
87.99055480957031
 31
-118.99996185302734
  0
LINE
  8
0
 10
72.44437408447266
 20
87.99055480957031
 30
-118.99996185302734
 11
62.98067855834961
 21
97.45426940917969
 31
-118.99996185302734
  0
LINE
  8
0
 10
62.98067855834961
 20
97.45426940917969
 30
-118.99996185302734
 11
52.196041107177734
 21
104.83182525634766
 31
-118.99995422363281
  0
LINE
  8
0
 10
41.292537689208984
 20
109.29109954833984
 30
-118.99995422363281
 11
52.196041107177734
 21
104.83182525634766
 31
-118.99995422363281
  0
LINE
  8
0
 10
116.97294616699219
 20
-46.93400955200195
 30
-118.99996185302734
 11
84.2592544555664
 21
66.35612487792969
 31
-118.99996185302734
  0
LINE
  8
0
 10
-257.5933837890625
 20
189.3773956298828
 30
-118.99989318847656
 11
41.292537689208984
 21
109.29109954833984
 31
-118.99995422363281
  0
LINE
  8
0
 10
145.9345703125
 20
295.6370544433594
 30
-118.99998474121094
 11
146.8714141845703
 21
296.2630310058594
 31
-118.99998474121094
  0
LINE
  8
0
 10
147.97650146484375
 20
296.4828186035156
 30
-118.99999237060547
 11
146.8714141845703
 21
296.2630310058594
 31
-118.99998474121094
  0
LINE
  8
0
 10
147.97650146484375
 20
296.4828186035156
 30
-118.99999237060547
 11
149.0815887451172
 21
296.2630310058594
 31
-118.99999237060547
  0
LINE
  8
0
 10
150.0184326171875
 20
295.6370544433594
 30
-118.99999237060547
 11
149.0815887451172
 21
296.2630310058594
 31
-118.99999237060547
  0
LINE
  8
0
 10
145.9345703125
 20
295.6370544433594
 30
-118.99998474121094
 11
145.30859375
 21
294.7001953125
 31
-118.99998474121094
  0
LINE
  8
0
 10
150.0184326171875
 20
295.6370544433594
 30
-118.99999237060547
 11
150.6444091796875
 21
294.7001953125
 31
-118.99999237060547
  0
LINE
  8
0
 10
150.6444091796875
 20
294.7001953125
 30
-118.99999237060547
 11
150.86422729492188
 21
293.5951232910156
 31
-118.99999237060547
  0
LINE
  8
0
 10
145.30859375
 20
292.4900207519531
 30
-118.99998474121094
 11
145.9345703125
 21
291.5531921386719
 31
-118.99998474121094
  0
LINE
  8
0
 10
150.6444091796875
 20
292.4900207519531
 30
-118.99998474121094
 11
150.86422729492188
 21
293.5951232910156
 31
-118.99999237060547
  0
LINE
  8
0
 10
150.6444091796875
 20
292.4900207519531
 30
-118.99998474121094
 11
150.0184326171875
 21
291.5531921386719
 31
-118.99998474121094
  0
LINE
  8
0
 10
145.9345703125
 20
291.5531921386719
 30
-118.99998474121094
 11
146.8714141845703
 21
290.9272155761719
 31
-118.99998474121094
  0
LINE
  8
0
 10
150.0184326171875
 20
291.5531921386719
 30
-118.99998474121094
 11
149.0815887451172
 21
290.9272155761719
 31
-118.99998474121094
  0
LINE
  8
0
 10
146.8714141845703
 20
290.9272155761719
 30
-118.99998474121094
 11
147.97650146484375
 21
290.7073669433594
 31
-118.99998474121094
  0
LINE
  8
0
 10
149.0815887451172
 20
290.9272155761719
 30
-118.99998474121094
 11
147.97650146484375
 21
290.7073669433594
 31
-118.99998474121094
  0
LINE
  8
0
 10
145.93455505371094
 20
171.55320739746094
 30
-118.99998474121094
 11
145.30857849121094
 21
172.49005126953125
 31
-118.99998474121094
  0
LINE
  8
0
 10
147.9764862060547
 20
170.70741271972656
 30
-118.99998474121094
 11
146.87139892578125
 21
170.92723083496094
 31
-118.99998474121094
  0
LINE
  8
0
 10
149.08157348632812
 20
170.92723083496094
 30
-118.99998474121094
 11
150.01841735839844
 21
171.55320739746094
 31
-118.99998474121094
  0
LINE
  8
0
 10
149.08157348632812
 20
170.92723083496094
 30
-118.99998474121094
 11
147.9764862060547
 21
170.70741271972656
 31
-118.99998474121094
  0
LINE
  8
0
 10
145.93455505371094
 20
171.55320739746094
 30
-118.99998474121094
 11
146.87139892578125
 21
170.92723083496094
 31
-118.99998474121094
  0
LINE
  8
0
 10
146.87139892578125
 20
176.26304626464844
 30
-118.99998474121094
 11
145.93455505371094
 21
175.63706970214844
 31
-118.99998474121094
  0
LINE
  8
0
 10
150.01841735839844
 20
175.63706970214844
 30
-118.99998474121094
 11
150.64439392089844
 21
174.70022583007812
 31
-118.99998474121094
  0
LINE
  8
0
 10
150.8642120361328
 20
173.5951385498047
 30
-118.99998474121094
 11
150.64439392089844
 21
174.70022583007812
 31
-118.99998474121094
  0
LINE
  8
0
 10
150.8642120361328
 20
173.5951385498047
 30
-118.99998474121094
 11
150.64439392089844
 21
172.49005126953125
 31
-118.99998474121094
  0
LINE
  8
0
 10
150.01841735839844
 20
171.55320739746094
 30
-118.99998474121094
 11
150.64439392089844
 21
172.49005126953125
 31
-118.99998474121094
  0
LINE
  8
0
 10
147.9764862060547
 20
176.4828643798828
 30
-118.99998474121094
 11
149.08157348632812
 21
176.26304626464844
 31
-118.99998474121094
  0
LINE
  8
0
 10
150.01841735839844
 20
175.63706970214844
 30
-118.99998474121094
 11
149.08157348632812
 21
176.26304626464844
 31
-118.99998474121094
  0
LINE
  8
0
 10
146.87139892578125
 20
176.26304626464844
 30
-118.99998474121094
 11
147.9764862060547
 21
176.4828643798828
 31
-118.99998474121094
  0
LINE
  8
0
 10
167.51905822753906
 20
-49.914913177490234
 30
-118.9999771118164
 11
168.6241455078125
 21
-49.69509506225586
 31
-118.9999771118164
  0
LINE
  8
0
 10
167.51905822753906
 20
-49.914913177490234
 30
-118.9999771118164
 11
166.58221435546875
 21
-50.540889739990234
 31
-118.9999771118164
  0
LINE
  8
0
 10
166.58221435546875
 20
-50.540889739990234
 30
-118.9999771118164
 11
165.95623779296875
 21
-51.47774887084961
 31
-118.9999771118164
  0
LINE
  8
0
 10
168.6241455078125
 20
-49.69509506225586
 30
-118.9999771118164
 11
169.72923278808594
 21
-49.914913177490234
 31
-118.9999771118164
  0
LINE
  8
0
 10
169.72923278808594
 20
-49.914913177490234
 30
-118.9999771118164
 11
170.66607666015625
 21
-50.540889739990234
 31
-118.9999771118164
  0
LINE
  8
0
 10
170.66607666015625
 20
-50.540889739990234
 30
-118.9999771118164
 11
171.29205322265625
 21
-51.47774887084961
 31
-118.9999771118164
  0
LINE
  8
0
 10
170.66607666015625
 20
-54.624752044677734
 30
-118.9999771118164
 11
169.72923278808594
 21
-55.250728607177734
 31
-118.9999771118164
  0
LINE
  8
0
 10
166.58221435546875
 20
-54.624752044677734
 30
-118.9999771118164
 11
165.95623779296875
 21
-53.68789291381836
 31
-118.9999771118164
  0
LINE
  8
0
 10
165.95623779296875
 20
-51.47774887084961
 30
-118.9999771118164
 11
165.73641967773438
 21
-52.582820892333984
 31
-118.9999771118164
  0
LINE
  8
0
 10
165.73641967773438
 20
-52.582820892333984
 30
-118.9999771118164
 11
165.95623779296875
 21
-53.68789291381836
 31
-118.9999771118164
  0
LINE
  8
0
 10
168.6241455078125
 20
-55.47054672241211
 30
-118.9999771118164
 11
167.51907348632812
 21
-55.250728607177734
 31
-118.9999771118164
  0
LINE
  8
0
 10
171.29205322265625
 20
-53.68789291381836
 30
-118.9999771118164
 11
171.51187133789062
 21
-52.582820892333984
 31
-118.9999771118164
  0
LINE
  8
0
 10
166.58221435546875
 20
-54.624752044677734
 30
-118.9999771118164
 11
167.51907348632812
 21
-55.250728607177734
 31
-118.9999771118164
  0
LINE
  8
0
 10
170.66607666015625
 20
-54.624752044677734
 30
-118.9999771118164
 11
171.29205322265625
 21
-53.68789291381836
 31
-118.9999771118164
  0
LINE
  8
0
 10
168.6241455078125
 20
-55.47054672241211
 30
-118.9999771118164
 11
169.72923278808594
 21
-55.250728607177734
 31
-118.9999771118164
  0
LINE
  8
0
 10
171.29205322265625
 20
-51.47774887084961
 30
-118.9999771118164
 11
171.51187133789062
 21
-52.582820892333984
 31
-118.9999771118164
  0
LINE
  8
0
 10
145.30859375
 20
294.7001953125
 30
-118.99998474121094
 11
145.08877563476562
 21
293.5951232910156
 31
-118.99998474121094
  0
LINE
  8
0
 10
145.30859375
 20
292.4900207519531
 30
-118.99998474121094
 11
145.08877563476562
 21
293.5951232910156
 31
-118.99998474121094
  0
LINE
  8
0
 10
145.93455505371094
 20
175.63706970214844
 30
-118.99998474121094
 11
145.30857849121094
 21
174.70022583007812
 31
-118.99998474121094
  0
LINE
  8
0
 10
145.30857849121094
 20
174.70022583007812
 30
-118.99998474121094
 11
145.08876037597656
 21
173.5951385498047
 31
-118.99998474121094
  0
LINE
  8
0
 10
145.30857849121094
 20
172.49005126953125
 30
-118.99998474121094
 11
145.08876037597656
 21
173.5951385498047
 31
-118.99998474121094
  0
LINE
  8
0
 10
90.6661148071289
 20
129.45909118652344
 30
-118.9999771118164
 11
89.7292709350586
 21
130.08506774902344
 31
-118.9999771118164
  0
LINE
  8
0
 10
90.6661148071289
 20
129.45909118652344
 30
-118.9999771118164
 11
91.2920913696289
 21
128.52223205566406
 31
-118.9999771118164
  0
LINE
  8
0
 10
91.2920913696289
 20
128.52223205566406
 30
-118.9999771118164
 11
91.51190948486328
 21
127.41716003417969
 31
-118.9999771118164
  0
LINE
  8
0
 10
91.51190948486328
 20
127.41716003417969
 30
-118.9999771118164
 11
91.2920913696289
 21
126.31205749511719
 31
-118.9999771118164
  0
LINE
  8
0
 10
90.6661148071289
 20
125.37522888183594
 30
-118.99996185302734
 11
89.7292709350586
 21
124.74925231933594
 31
-118.99996185302734
  0
LINE
  8
0
 10
90.6661148071289
 20
125.37522888183594
 30
-118.99996185302734
 11
91.2920913696289
 21
126.31205749511719
 31
-118.9999771118164
  0
LINE
  8
0
 10
89.7292709350586
 20
124.74925231933594
 30
-118.99996185302734
 11
88.62418365478516
 21
124.52943420410156
 31
-118.99996185302734
  0
LINE
  8
0
 10
86.5822525024414
 20
129.45909118652344
 30
-118.99996948242188
 11
87.51909637451172
 21
130.08506774902344
 31
-118.99996185302734
  0
LINE
  8
0
 10
87.51909637451172
 20
124.74925231933594
 30
-118.99996185302734
 11
88.62418365478516
 21
124.52943420410156
 31
-118.99996185302734
  0
LINE
  8
0
 10
85.73645782470703
 20
127.41716003417969
 30
-118.99996948242188
 11
85.9562759399414
 21
128.52224731445312
 31
-118.99998474121094
  0
LINE
  8
0
 10
86.5822525024414
 20
129.45909118652344
 30
-118.99996948242188
 11
85.9562759399414
 21
128.52224731445312
 31
-118.99998474121094
  0
LINE
  8
0
 10
85.73645782470703
 20
127.41716003417969
 30
-118.99996948242188
 11
85.9562759399414
 21
126.31207275390625
 31
-118.99996948242188
  0
LINE
  8
0
 10
85.9562759399414
 20
126.31207275390625
 30
-118.99996948242188
 11
86.5822525024414
 21
125.37522888183594
 31
-118.99996185302734
  0
LINE
  8
0
 10
87.51909637451172
 20
124.74925231933594
 30
-118.99996185302734
 11
86.5822525024414
 21
125.37522888183594
 31
-118.99996185302734
  0
LINE
  8
0
 10
88.62418365478516
 20
130.3048858642578
 30
-118.99996185302734
 11
87.51909637451172
 21
130.08506774902344
 31
-118.99996185302734
  0
LINE
  8
0
 10
89.7292709350586
 20
130.08506774902344
 30
-118.9999771118164
 11
88.62418365478516
 21
130.3048858642578
 31
-118.99996185302734
  0
LINE
  8
0
 10
-249.15406799316406
 20
315.9575500488281
 30
-118.99989318847656
 11
-250.0908966064453
 21
315.3315734863281
 31
-118.99989318847656
  0
LINE
  8
0
 10
-249.55807495117188
 20
207.0621337890625
 30
-118.99989318847656
 11
-249.77792358398438
 21
208.16720581054688
 31
-118.99989318847656
  0
LINE
  8
0
 10
-249.55807495117188
 20
207.0621337890625
 30
-118.99989318847656
 11
-249.77792358398438
 21
205.95703125
 31
-118.99989318847656
  0
LINE
  8
0
 10
-249.15406799316406
 20
320.0414123535156
 30
-118.99989318847656
 11
-248.52809143066406
 21
319.10455322265625
 31
-118.99989318847656
  0
LINE
  8
0
 10
-249.15406799316406
 20
315.9575500488281
 30
-118.99989318847656
 11
-248.52809143066406
 21
316.8943786621094
 31
-118.99989318847656
  0
LINE
  8
0
 10
-248.52809143066406
 20
319.10455322265625
 30
-118.99989318847656
 11
-248.30824279785156
 21
317.9994812011719
 31
-118.99989318847656
  0
LINE
  8
0
 10
-248.52809143066406
 20
316.8943786621094
 30
-118.99989318847656
 11
-248.30824279785156
 21
317.9994812011719
 31
-118.99989318847656
  0
LINE
  8
0
 10
-251.1959991455078
 20
320.8871765136719
 30
-118.99989318847656
 11
-250.0908966064453
 21
320.6673889160156
 31
-118.99989318847656
  0
LINE
  8
0
 10
-251.1959991455078
 20
320.8871765136719
 30
-118.99989318847656
 11
-252.30104064941406
 21
320.6673889160156
 31
-118.99989318847656
  0
LINE
  8
0
 10
-252.30104064941406
 20
315.3315734863281
 30
-118.99989318847656
 11
-251.1959991455078
 21
315.1117248535156
 31
-118.99989318847656
  0
LINE
  8
0
 10
-249.15406799316406
 20
320.0414123535156
 30
-118.99989318847656
 11
-250.0908966064453
 21
320.6673889160156
 31
-118.99989318847656
  0
LINE
  8
0
 10
-250.0908966064453
 20
315.3315734863281
 30
-118.99989318847656
 11
-251.1959991455078
 21
315.1117248535156
 31
-118.99989318847656
  0
LINE
  8
0
 10
-251.34072875976562
 20
209.73004150390625
 30
-118.99989318847656
 11
-250.40390014648438
 21
209.10406494140625
 31
-118.99989318847656
  0
LINE
  8
0
 10
-249.77792358398438
 20
208.16720581054688
 30
-118.99989318847656
 11
-250.40390014648438
 21
209.10406494140625
 31
-118.99989318847656
  0
LINE
  8
0
 10
-250.40390014648438
 20
205.02020263671875
 30
-118.99989318847656
 11
-251.34072875976562
 21
204.39422607421875
 31
-118.99989318847656
  0
LINE
  8
0
 10
-249.77792358398438
 20
205.95703125
 30
-118.99989318847656
 11
-250.40390014648438
 21
205.02020263671875
 31
-118.99989318847656
  0
LINE
  8
0
 10
-251.34072875976562
 20
204.39422607421875
 30
-118.99989318847656
 11
-252.44583129882812
 21
204.17437744140625
 31
-118.99989318847656
  0
LINE
  8
0
 10
-254.0836944580078
 20
317.9994812011719
 30
-118.99989318847656
 11
-253.86390686035156
 21
319.10455322265625
 31
-118.99989318847656
  0
LINE
  8
0
 10
-253.86390686035156
 20
319.10455322265625
 30
-118.99989318847656
 11
-253.23793029785156
 21
320.0414123535156
 31
-118.99989318847656
  0
LINE
  8
0
 10
-252.30104064941406
 20
320.6673889160156
 30
-118.99989318847656
 11
-253.23793029785156
 21
320.0414123535156
 31
-118.99989318847656
  0
LINE
  8
0
 10
-253.23793029785156
 20
315.9575500488281
 30
-118.99989318847656
 11
-253.86390686035156
 21
316.8943786621094
 31
-118.99989318847656
  0
LINE
  8
0
 10
-254.0836944580078
 20
317.9994812011719
 30
-118.99989318847656
 11
-253.86390686035156
 21
316.8943786621094
 31
-118.99989318847656
  0
LINE
  8
0
 10
-252.30104064941406
 20
315.3315734863281
 30
-118.99989318847656
 11
-253.23793029785156
 21
315.9575500488281
 31
-118.99989318847656
  0
LINE
  8
0
 10
-251.34072875976562
 20
209.73004150390625
 30
-118.99989318847656
 11
-252.44583129882812
 21
209.9498291015625
 31
-118.99989318847656
  0
LINE
  8
0
 10
-252.44583129882812
 20
209.9498291015625
 30
-118.99989318847656
 11
-253.55087280273438
 21
209.73004150390625
 31
-118.99989318847656
  0
LINE
  8
0
 10
-253.55087280273438
 20
204.39422607421875
 30
-118.99989318847656
 11
-254.48776245117188
 21
205.02020263671875
 31
-118.99989318847656
  0
LINE
  8
0
 10
-253.55087280273438
 20
209.73004150390625
 30
-118.99989318847656
 11
-254.48776245117188
 21
209.10406494140625
 31
-118.99989318847656
  0
LINE
  8
0
 10
-252.44583129882812
 20
204.17437744140625
 30
-118.99989318847656
 11
-253.55087280273438
 21
204.39422607421875
 31
-118.99989318847656
  0
LINE
  8
0
 10
-254.48776245117188
 20
209.10406494140625
 30
-118.99989318847656
 11
-255.11373901367188
 21
208.16720581054688
 31
-118.99989318847656
  0
LINE
  8
0
 10
-255.11373901367188
 20
208.16720581054688
 30
-118.99989318847656
 11
-255.33352661132812
 21
207.0621337890625
 31
-118.99989318847656
  0
LINE
  8
0
 10
-255.33352661132812
 20
207.0621337890625
 30
-118.99989318847656
 11
-255.11373901367188
 21
205.95703125
 31
-118.99989318847656
  0
LINE
  8
0
 10
-254.48776245117188
 20
205.02020263671875
 30
-118.99989318847656
 11
-255.11373901367188
 21
205.95703125
 31
-118.99989318847656
  0
LINE
  8
0
 10
158.6241455078125
 20
-52.58282470703125
 30
-118.9999771118164
 11
178.6241455078125
 21
-52.58282470703125
 31
-118.9999771118164
  0
LINE
  8
0
 10
168.6241455078125
 20
-42.58282470703125
 30
-118.9999771118164
 11
168.6241455078125
 21
-62.58282470703125
 31
-118.9999771118164
  0
LINE
  8
0
 10
137.97650146484375
 20
293.5950927734375
 30
-118.99998474121094
 11
157.97650146484375
 21
293.5950927734375
 31
-118.99998474121094
  0
LINE
  8
0
 10
147.97650146484375
 20
303.5950927734375
 30
-118.99998474121094
 11
147.97650146484375
 21
283.5950927734375
 31
-118.99998474121094
  0
LINE
  8
0
 10
137.9764862060547
 20
173.5951385498047
 30
-118.99998474121094
 11
157.9764862060547
 21
173.5951385498047
 31
-118.99998474121094
  0
LINE
  8
0
 10
147.9764862060547
 20
183.5951385498047
 30
-118.99998474121094
 11
147.9764862060547
 21
163.5951385498047
 31
-118.99998474121094
  0
LINE
  8
0
 10
78.62418365478516
 20
127.41716003417969
 30
-118.99996948242188
 11
98.62418365478516
 21
127.41716003417969
 31
-118.99996948242188
  0
LINE
  8
0
 10
88.62418365478516
 20
137.4171600341797
 30
-118.99996948242188
 11
88.62418365478516
 21
117.41716003417969
 31
-118.99996948242188
  0
LINE
  8
0
 10
-262.44580078125
 20
207.06210327148438
 30
-118.99989318847656
 11
-242.44581604003906
 21
207.06210327148438
 31
-118.99989318847656
  0
LINE
  8
0
 10
-252.44581604003906
 20
217.06210327148438
 30
-118.99989318847656
 11
-252.44581604003906
 21
197.06210327148438
 31
-118.99989318847656
  0
LINE
  8
0
 10
-261.1959533691406
 20
317.99945068359375
 30
-118.99989318847656
 11
-241.1959686279297
 21
317.99945068359375
 31
-118.99989318847656
  0
LINE
  8
0
 10
-251.1959686279297
 20
327.99945068359375
 30
-118.99989318847656
 11
-251.1959686279297
 21
307.99945068359375
 31
-118.99989318847656
  0
LINE
  8
0
 10
187.99998474121094
 20
345.9999694824219
 30
-119.0
 11
187.9999237060547
 21
-80.28720092773438
 31
-118.9999771118164
  0
LINE
  8
0
 10
152.21449279785156
 20
-80.28719329833984
 30
-118.99996948242188
 11
141.7759246826172
 21
-78.75438690185547
 31
-118.99996948242188
  0
LINE
  8
0
 10
141.7759246826172
 20
-78.75438690185547
 30
-118.99996948242188
 11
131.5311737060547
 21
-74.30602264404297
 31
-118.99996948242188
  0
LINE
  8
0
 10
131.5311737060547
 20
-74.30602264404297
 30
-118.99996948242188
 11
122.48301696777344
 21
-67.37752532958984
 31
-118.99996948242188
  0
LINE
  8
0
 10
122.48301696777344
 20
-67.37752532958984
 30
-118.99996948242188
 11
115.51716613769531
 21
-58.6470832824707
 31
-118.99996185302734
  0
LINE
  8
0
 10
111.31551361083984
 20
-48.96931838989258
 30
-118.99996185302734
 11
115.51716613769531
 21
-58.6470832824707
 31
-118.99996185302734
  0
LINE
  8
0
 10
187.9999237060547
 20
-80.28720092773438
 30
-118.9999771118164
 11
152.21449279785156
 21
-80.28719329833984
 31
-118.99996948242188
  0
LINE
  8
0
 10
-259.5698547363281
 20
183.69532775878906
 30
-118.99989318847656
 11
-261.9523620605469
 21
184.72438049316406
 31
-118.99989318847656
  0
LINE
  8
0
 10
-261.9523620605469
 20
184.72438049316406
 30
-118.99989318847656
 11
-264.10162353515625
 21
186.4340057373047
 31
-118.99989318847656
  0
LINE
  8
0
 10
-264.10162353515625
 20
186.4340057373047
 30
-118.99989318847656
 11
-265.8072814941406
 21
188.65689086914062
 31
-118.99989318847656
  0
LINE
  8
0
 10
-265.8072814941406
 20
188.65689086914062
 30
-118.99989318847656
 11
-266.90240478515625
 21
191.1754150390625
 31
-118.99989318847656
  0
LINE
  8
0
 10
-267.2797546386719
 20
193.74307250976562
 30
-118.99989318847656
 11
-266.90240478515625
 21
191.1754150390625
 31
-118.99989318847656
  0
LINE
  8
0
 10
-255.54588317871094
 20
346.0000305175781
 30
-118.99989318847656
 11
-259.1718444824219
 21
345.42572021484375
 31
-118.99989318847656
  0
LINE
  8
0
 10
-259.1718444824219
 20
345.42572021484375
 30
-118.99989318847656
 11
-262.4429016113281
 21
343.7590637207031
 31
-118.99989318847656
  0
LINE
  8
0
 10
-262.4429016113281
 20
343.7590637207031
 30
-118.99989318847656
 11
-265.0387878417969
 21
341.16314697265625
 31
-118.99989318847656
  0
LINE
  8
0
 10
-265.0387878417969
 20
341.16314697265625
 30
-118.99989318847656
 11
-266.7054748535156
 21
337.8921203613281
 31
-118.99989318847656
  0
LINE
  8
0
 10
-267.2797546386719
 20
334.26617431640625
 30
-118.99989318847656
 11
-266.7054748535156
 21
337.8921203613281
 31
-118.99989318847656
  0
LINE
  8
0
 10
187.99998474121094
 20
345.9999694824219
 30
-119.0
 11
-255.54588317871094
 21
346.0000305175781
 31
-118.99989318847656
  0
LINE
  8
0
 10
-267.2797546386719
 20
193.74307250976562
 30
-118.99989318847656
 11
-267.2797546386719
 21
334.26617431640625
 31
-118.99989318847656
  0
LINE
  8
0
 10
78.58397674560547
 20
64.38264465332031
 30
-118.99996185302734
 11
74.5097885131836
 21
74.34452819824219
 31
-118.99996185302734
  0
LINE
  8
0
 10
74.5097885131836
 20
74.34452819824219
 30
-118.99996185302734
 11
67.80725860595703
 21
84.14237976074219
 31
-118.99996185302734
  0
LINE
  8
0
 10
67.80725860595703
 20
84.14237976074219
 30
-118.99996185302734
 11
59.132503509521484
 21
92.81715393066406
 31
-118.99995422363281
  0
LINE
  8
0
 10
59.132503509521484
 20
92.81715393066406
 30
-118.99995422363281
 11
49.334651947021484
 21
99.5196762084961
 31
-118.99995422363281
  0
LINE
  8
0
 10
39.37278366088867
 20
103.5938491821289
 30
-118.99995422363281
 11
49.334651947021484
 21
99.5196762084961
 31
-118.99995422363281
  0
LINE
  8
0
 10
111.31551361083984
 20
-48.96931838989258
 30
-118.99996185302734
 11
78.58397674560547
 21
64.38264465332031
 31
-118.99996185302734
  0
LINE
  8
0
 10
-259.5698547363281
 20
183.69532775878906
 30
-118.99989318847656
 11
39.37278366088867
 21
103.5938491821289
 31
-118.99995422363281
  0
LINE
  8
0
 10
145.9345703125
 20
295.6370544433594
 30
-118.99998474121094
 11
146.8714141845703
 21
296.2630310058594
 31
-118.99998474121094
  0
LINE
  8
0
 10
147.97650146484375
 20
296.4828186035156
 30
-118.99999237060547
 11
146.8714141845703
 21
296.2630310058594
 31
-118.99998474121094
  0
LINE
  8
0
 10
147.97650146484375
 20
296.4828186035156
 30
-118.99999237060547
 11
149.0815887451172
 21
296.2630310058594
 31
-118.99999237060547
  0
LINE
  8
0
 10
150.0184326171875
 20
295.6370544433594
 30
-118.99999237060547
 11
149.0815887451172
 21
296.2630310058594
 31
-118.99999237060547
  0
LINE
  8
0
 10
145.9345703125
 20
295.6370544433594
 30
-118.99998474121094
 11
145.30859375
 21
294.7001953125
 31
-118.99998474121094
  0
LINE
  8
0
 10
150.0184326171875
 20
295.6370544433594
 30
-118.99999237060547
 11
150.6444091796875
 21
294.7001953125
 31
-118.99999237060547
  0
LINE
  8
0
 10
150.6444091796875
 20
294.7001953125
 30
-118.99999237060547
 11
150.86422729492188
 21
293.5951232910156
 31
-118.99999237060547
  0
LINE
  8
0
 10
145.30859375
 20
292.4900207519531
 30
-118.99998474121094
 11
145.9345703125
 21
291.5531921386719
 31
-118.99998474121094
  0
LINE
  8
0
 10
150.6444091796875
 20
292.4900207519531
 30
-118.99998474121094
 11
150.86422729492188
 21
293.5951232910156
 31
-118.99999237060547
  0
LINE
  8
0
 10
150.6444091796875
 20
292.4900207519531
 30
-118.99998474121094
 11
150.0184326171875
 21
291.5531921386719
 31
-118.99998474121094
  0
LINE
  8
0
 10
145.9345703125
 20
291.5531921386719
 30
-118.99998474121094
 11
146.8714141845703
 21
290.9272155761719
 31
-118.99998474121094
  0
LINE
  8
0
 10
150.0184326171875
 20
291.5531921386719
 30
-118.99998474121094
 11
149.0815887451172
 21
290.9272155761719
 31
-118.99998474121094
  0
LINE
  8
0
 10
146.8714141845703
 20
290.9272155761719
 30
-118.99998474121094
 11
147.97650146484375
 21
290.7073669433594
 31
-118.99998474121094
  0
LINE
  8
0
 10
149.0815887451172
 20
290.9272155761719
 30
-118.99998474121094
 11
147.97650146484375
 21
290.7073669433594
 31
-118.99998474121094
  0
LINE
  8
0
 10
145.93455505371094
 20
171.55320739746094
 30
-118.99998474121094
 11
145.30857849121094
 21
172.49005126953125
 31
-118.99998474121094
  0
LINE
  8
0
 10
147.9764862060547
 20
170.70741271972656
 30
-118.99998474121094
 11
146.87139892578125
 21
170.92723083496094
 31
-118.99998474121094
  0
LINE
  8
0
 10
149.08157348632812
 20
170.92723083496094
 30
-118.99998474121094
 11
150.01841735839844
 21
171.55320739746094
 31
-118.99998474121094
  0
LINE
  8
0
 10
149.08157348632812
 20
170.92723083496094
 30
-118.99998474121094
 11
147.9764862060547
 21
170.70741271972656
 31
-118.99998474121094
  0
LINE
  8
0
 10
145.93455505371094
 20
171.55320739746094
 30
-118.99998474121094
 11
146.87139892578125
 21
170.92723083496094
 31
-118.99998474121094
  0
LINE
  8
0
 10
146.87139892578125
 20
176.26304626464844
 30
-118.99998474121094
 11
145.93455505371094
 21
175.63706970214844
 31
-118.99998474121094
  0
LINE
  8
0
 10
150.01841735839844
 20
175.63706970214844
 30
-118.99998474121094
 11
150.64439392089844
 21
174.70022583007812
 31
-118.99998474121094
  0
LINE
  8
0
 10
150.8642120361328
 20
173.5951385498047
 30
-118.99998474121094
 11
150.64439392089844
 21
174.70022583007812
 31
-118.99998474121094
  0
LINE
  8
0
 10
150.8642120361328
 20
173.5951385498047
 30
-118.99998474121094
 11
150.64439392089844
 21
172.49005126953125
 31
-118.99998474121094
  0
LINE
  8
0
 10
150.01841735839844
 20
171.55320739746094
 30
-118.99998474121094
 11
150.64439392089844
 21
172.49005126953125
 31
-118.99998474121094
  0
LINE
  8
0
 10
147.9764862060547
 20
176.4828643798828
 30
-118.99998474121094
 11
149.08157348632812
 21
176.26304626464844
 31
-118.99998474121094
  0
LINE
  8
0
 10
150.01841735839844
 20
175.63706970214844
 30
-118.99998474121094
 11
149.08157348632812
 21
176.26304626464844
 31
-118.99998474121094
  0
LINE
  8
0
 10
146.87139892578125
 20
176.26304626464844
 30
-118.99998474121094
 11
147.9764862060547
 21
176.4828643798828
 31
-118.99998474121094
  0
LINE
  8
0
 10
167.51905822753906
 20
-49.914913177490234
 30
-118.9999771118164
 11
168.6241455078125
 21
-49.69509506225586
 31
-118.9999771118164
  0
LINE
  8
0
 10
167.51905822753906
 20
-49.914913177490234
 30
-118.9999771118164
 11
166.58221435546875
 21
-50.540889739990234
 31
-118.9999771118164
  0
LINE
  8
0
 10
166.58221435546875
 20
-50.540889739990234
 30
-118.9999771118164
 11
165.95623779296875
 21
-51.47774887084961
 31
-118.9999771118164
  0
LINE
  8
0
 10
168.6241455078125
 20
-49.69509506225586
 30
-118.9999771118164
 11
169.72923278808594
 21
-49.914913177490234
 31
-118.9999771118164
  0
LINE
  8
0
 10
169.72923278808594
 20
-49.914913177490234
 30
-118.9999771118164
 11
170.66607666015625
 21
-50.540889739990234
 31
-118.9999771118164
  0
LINE
  8
0
 10
170.66607666015625
 20
-50.540889739990234
 30
-118.9999771118164
 11
171.29205322265625
 21
-51.47774887084961
 31
-118.9999771118164
  0
LINE
  8
0
 10
170.66607666015625
 20
-54.624752044677734
 30
-118.9999771118164
 11
169.72923278808594
 21
-55.250728607177734
 31
-118.9999771118164
  0
LINE
  8
0
 10
166.58221435546875
 20
-54.624752044677734
 30
-118.9999771118164
 11
165.95623779296875
 21
-53.68789291381836
 31
-118.9999771118164
  0
LINE
  8
0
 10
165.95623779296875
 20
-51.47774887084961
 30
-118.9999771118164
 11
165.73641967773438
 21
-52.582820892333984
 31
-118.9999771118164
  0
LINE
  8
0
 10
165.73641967773438
 20
-52.582820892333984
 30
-118.9999771118164
 11
165.95623779296875
 21
-53.68789291381836
 31
-118.9999771118164
  0
LINE
  8
0
 10
168.6241455078125
 20
-55.47054672241211
 30
-118.9999771118164
 11
167.51907348632812
 21
-55.250728607177734
 31
-118.9999771118164
  0
LINE
  8
0
 10
171.29205322265625
 20
-53.68789291381836
 30
-118.9999771118164
 11
171.51187133789062
 21
-52.582820892333984
 31
-118.9999771118164
  0
LINE
  8
0
 10
166.58221435546875
 20
-54.624752044677734
 30
-118.9999771118164
 11
167.51907348632812
 21
-55.250728607177734
 31
-118.9999771118164
  0
LINE
  8
0
 10
170.66607666015625
 20
-54.624752044677734
 30
-118.9999771118164
 11
171.29205322265625
 21
-53.68789291381836
 31
-118.9999771118164
  0
LINE
  8
0
 10
168.6241455078125
 20
-55.47054672241211
 30
-118.9999771118164
 11
169.72923278808594
 21
-55.250728607177734
 31
-118.9999771118164
  0
LINE
  8
0
 10
171.29205322265625
 20
-51.47774887084961
 30
-118.9999771118164
 11
171.51187133789062
 21
-52.582820892333984
 31
-118.9999771118164
  0
LINE
  8
0
 10
145.30859375
 20
294.7001953125
 30
-118.99998474121094
 11
145.08877563476562
 21
293.5951232910156
 31
-118.99998474121094
  0
LINE
  8
0
 10
145.30859375
 20
292.4900207519531
 30
-118.99998474121094
 11
145.08877563476562
 21
293.5951232910156
 31
-118.99998474121094
  0
LINE
  8
0
 10
145.93455505371094
 20
175.63706970214844
 30
-118.99998474121094
 11
145.30857849121094
 21
174.70022583007812
 31
-118.99998474121094
  0
LINE
  8
0
 10
145.30857849121094
 20
174.70022583007812
 30
-118.99998474121094
 11
145.08876037597656
 21
173.5951385498047
 31
-118.99998474121094
  0
LINE
  8
0
 10
145.30857849121094
 20
172.49005126953125
 30
-118.99998474121094
 11
145.08876037597656
 21
173.5951385498047
 31
-118.99998474121094
  0
LINE
  8
0
 10
90.6661148071289
 20
129.45909118652344
 30
-118.9999771118164
 11
89.7292709350586
 21
130.08506774902344
 31
-118.9999771118164
  0
LINE
  8
0
 10
90.6661148071289
 20
129.45909118652344
 30
-118.9999771118164
 11
91.2920913696289
 21
128.52223205566406
 31
-118.9999771118164
  0
LINE
  8
0
 10
91.2920913696289
 20
128.52223205566406
 30
-118.9999771118164
 11
91.51190948486328
 21
127.41716003417969
 31
-118.9999771118164
  0
LINE
  8
0
 10
91.51190948486328
 20
127.41716003417969
 30
-118.9999771118164
 11
91.2920913696289
 21
126.31205749511719
 31
-118.9999771118164
  0
LINE
  8
0
 10
90.6661148071289
 20
125.37522888183594
 30
-118.99996185302734
 11
89.7292709350586
 21
124.74925231933594
 31
-118.99996185302734
  0
LINE
  8
0
 10
90.6661148071289
 20
125.37522888183594
 30
-118.99996185302734
 11
91.2920913696289
 21
126.31205749511719
 31
-118.9999771118164
  0
LINE
  8
0
 10
89.7292709350586
 20
124.74925231933594
 30
-118.99996185302734
 11
88.62418365478516
 21
124.52943420410156
 31
-118.99996185302734
  0
LINE
  8
0
 10
86.5822525024414
 20
129.45909118652344
 30
-118.99996948242188
 11
87.51909637451172
 21
130.08506774902344
 31
-118.99996185302734
  0
LINE
  8
0
 10
87.51909637451172
 20
124.74925231933594
 30
-118.99996185302734
 11
88.62418365478516
 21
124.52943420410156
 31
-118.99996185302734
  0
LINE
  8
0
 10
85.73645782470703
 20
127.41716003417969
 30
-118.99996948242188
 11
85.9562759399414
 21
128.52224731445312
 31
-118.99998474121094
  0
LINE
  8
0
 10
86.5822525024414
 20
129.45909118652344
 30
-118.99996948242188
 11
85.9562759399414
 21
128.52224731445312
 31
-118.99998474121094
  0
LINE
  8
0
 10
85.73645782470703
 20
127.41716003417969
 30
-118.99996948242188
 11
85.9562759399414
 21
126.31207275390625
 31
-118.99996948242188
  0
LINE
  8
0
 10
85.9562759399414
 20
126.31207275390625
 30
-118.99996948242188
 11
86.5822525024414
 21
125.37522888183594
 31
-118.99996185302734
  0
LINE
  8
0
 10
87.51909637451172
 20
124.74925231933594
 30
-118.99996185302734
 11
86.5822525024414
 21
125.37522888183594
 31
-118.99996185302734
  0
LINE
  8
0
 10
88.62418365478516
 20
130.3048858642578
 30
-118.99996185302734
 11
87.51909637451172
 21
130.08506774902344
 31
-118.99996185302734
  0
LINE
  8
0
 10
89.7292709350586
 20
130.08506774902344
 30
-118.9999771118164
 11
88.62418365478516
 21
130.3048858642578
 31
-118.99996185302734
  0
LINE
  8
0
 10
-249.15406799316406
 20
315.9575500488281
 30
-118.99989318847656
 11
-250.0908966064453
 21
315.3315734863281
 31
-118.99989318847656
  0
LINE
  8
0
 10
-249.55807495117188
 20
207.0621337890625
 30
-118.99989318847656
 11
-249.77792358398438
 21
208.16720581054688
 31
-118.99989318847656
  0
LINE
  8
0
 10
-249.55807495117188
 20
207.0621337890625
 30
-118.99989318847656
 11
-249.77792358398438
 21
205.95703125
 31
-118.99989318847656
  0
LINE
  8
0
 10
-249.15406799316406
 20
320.0414123535156
 30
-118.99989318847656
 11
-248.52809143066406
 21
319.10455322265625
 31
-118.99989318847656
  0
LINE
  8
0
 10
-249.15406799316406
 20
315.9575500488281
 30
-118.99989318847656
 11
-248.52809143066406
 21
316.8943786621094
 31
-118.99989318847656
  0
LINE
  8
0
 10
-248.52809143066406
 20
319.10455322265625
 30
-118.99989318847656
 11
-248.30824279785156
 21
317.9994812011719
 31
-118.99989318847656
  0
LINE
  8
0
 10
-248.52809143066406
 20
316.8943786621094
 30
-118.99989318847656
 11
-248.30824279785156
 21
317.9994812011719
 31
-118.99989318847656
  0
LINE
  8
0
 10
-251.1959991455078
 20
320.8871765136719
 30
-118.99989318847656
 11
-250.0908966064453
 21
320.6673889160156
 31
-118.99989318847656
  0
LINE
  8
0
 10
-251.1959991455078
 20
320.8871765136719
 30
-118.99989318847656
 11
-252.30104064941406
 21
320.6673889160156
 31
-118.99989318847656
  0
LINE
  8
0
 10
-252.30104064941406
 20
315.3315734863281
 30
-118.99989318847656
 11
-251.1959991455078
 21
315.1117248535156
 31
-118.99989318847656
  0
LINE
  8
0
 10
-249.15406799316406
 20
320.0414123535156
 30
-118.99989318847656
 11
-250.0908966064453
 21
320.6673889160156
 31
-118.99989318847656
  0
LINE
  8
0
 10
-250.0908966064453
 20
315.3315734863281
 30
-118.99989318847656
 11
-251.1959991455078
 21
315.1117248535156
 31
-118.99989318847656
  0
LINE
  8
0
 10
-251.34072875976562
 20
209.73004150390625
 30
-118.99989318847656
 11
-250.40390014648438
 21
209.10406494140625
 31
-118.99989318847656
  0
LINE
  8
0
 10
-249.77792358398438
 20
208.16720581054688
 30
-118.99989318847656
 11
-250.40390014648438
 21
209.10406494140625
 31
-118.99989318847656
  0
LINE
  8
0
 10
-250.40390014648438
 20
205.02020263671875
 30
-118.99989318847656
 11
-251.34072875976562
 21
204.39422607421875
 31
-118.99989318847656
  0
LINE
  8
0
 10
-249.77792358398438
 20
205.95703125
 30
-118.99989318847656
 11
-250.40390014648438
 21
205.02020263671875
 31
-118.99989318847656
  0
LINE
  8
0
 10
-251.34072875976562
 20
204.39422607421875
 30
-118.99989318847656
 11
-252.44583129882812
 21
204.17437744140625
 31
-118.99989318847656
  0
LINE
  8
0
 10
-254.0836944580078
 20
317.9994812011719
 30
-118.99989318847656
 11
-253.86390686035156
 21
319.10455322265625
 31
-118.99989318847656
  0
LINE
  8
0
 10
-253.86390686035156
 20
319.10455322265625
 30
-118.99989318847656
 11
-253.23793029785156
 21
320.0414123535156
 31
-118.99989318847656
  0
LINE
  8
0
 10
-252.30104064941406
 20
320.6673889160156
 30
-118.99989318847656
 11
-253.23793029785156
 21
320.0414123535156
 31
-118.99989318847656
  0
LINE
  8
0
 10
-253.23793029785156
 20
315.9575500488281
 30
-118.99989318847656
 11
-253.86390686035156
 21
316.8943786621094
 31
-118.99989318847656
  0
LINE
  8
0
 10
-254.0836944580078
 20
317.9994812011719
 30
-118.99989318847656
 11
-253.86390686035156
 21
316.8943786621094
 31
-118.99989318847656
  0
LINE
  8
0
 10
-252.30104064941406
 20
315.3315734863281
 30
-118.99989318847656
 11
-253.23793029785156
 21
315.9575500488281
 31
-118.99989318847656
  0
LINE
  8
0
 10
-251.34072875976562
 20
209.73004150390625
 30
-118.99989318847656
 11
-252.44583129882812
 21
209.9498291015625
 31
-118.99989318847656
  0
LINE
  8
0
 10
-252.44583129882812
 20
209.9498291015625
 30
-118.99989318847656
 11
-253.55087280273438
 21
209.73004150390625
 31
-118.99989318847656
  0
LINE
  8
0
 10
-253.55087280273438
 20
204.39422607421875
 30
-118.99989318847656
 11
-254.48776245117188
 21
205.02020263671875
 31
-118.99989318847656
  0
LINE
  8
0
 10
-253.55087280273438
 20
209.73004150390625
 30
-118.99989318847656
 11
-254.48776245117188
 21
209.10406494140625
 31
-118.99989318847656
  0
LINE
  8
0
 10
-252.44583129882812
 20
204.17437744140625
 30
-118.99989318847656
 11
-253.55087280273438
 21
204.39422607421875
 31
-118.99989318847656
  0
LINE
  8
0
 10
-254.48776245117188
 20
209.10406494140625
 30
-118.99989318847656
 11
-255.11373901367188
 21
208.16720581054688
 31
-118.99989318847656
  0
LINE
  8
0
 10
-255.11373901367188
 20
208.16720581054688
 30
-118.99989318847656
 11
-255.33352661132812
 21
207.0621337890625
 31
-118.99989318847656
  0
LINE
  8
0
 10
-255.33352661132812
 20
207.0621337890625
 30
-118.99989318847656
 11
-255.11373901367188
 21
205.95703125
 31
-118.99989318847656
  0
LINE
  8
0
 10
-254.48776245117188
 20
205.02020263671875
 30
-118.99989318847656
 11
-255.11373901367188
 21
205.95703125
 31
-118.99989318847656
  0
ENDSEC
  0
EOF
